<svg viewBox="0 0 800 450" preserveAspectRatio="xMaxYMid meet" aria-hidden="true"><defs><linearGradient id="gAsshareh" x1="0" y1="0" x2="1" y2="1"><stop offset="0" stop-color="#9DBDFF"/><stop offset=".5" stop-color="#2F63F2"/><stop offset="1" stop-color="#15339E"/></linearGradient><linearGradient id="gCsshareh" x1="0" y1="0" x2="1" y2="1"><stop offset="0" stop-color="#FFC7C1"/><stop offset=".5" stop-color="#FF6B63"/><stop offset="1" stop-color="#C23630"/></linearGradient><linearGradient id="gMsshareh" x1="0" y1="0" x2="1" y2="1"><stop offset="0" stop-color="#A5F8DF"/><stop offset=".5" stop-color="#19C79B"/><stop offset="1" stop-color="#0A7F63"/></linearGradient><linearGradient id="gSsshareh" x1="0" y1="0" x2="1" y2="1"><stop offset="0" stop-color="#FFF1C4"/><stop offset=".5" stop-color="#FFC83D"/><stop offset="1" stop-color="#D08A0C"/></linearGradient><radialGradient id="gClsshareh" cx=".4" cy=".3" r=".8"><stop offset="0" stop-color="#fff"/><stop offset="1" stop-color="#E4ECFF"/></radialGradient><filter id="shsshareh" x="-30%" y="-30%" width="160%" height="170%"><feDropShadow dx="0" dy="24" stdDeviation="18" flood-color="#1B3A8F" flood-opacity=".38"/></filter><filter id="shssshareh" x="-30%" y="-30%" width="160%" height="170%"><feDropShadow dx="0" dy="6" stdDeviation="6" flood-color="#1B3A8F" flood-opacity=".16"/></filter><radialGradient id="glowsshareh" cx=".72" cy=".45" r=".5"><stop offset="0" stop-color="#FFFFFF" stop-opacity=".85"/><stop offset="1" stop-color="#FFFFFF" stop-opacity="0"/></radialGradient></defs><rect width="800" height="450" fill="url(#glowsshareh)"/><g transform="translate(470 90) scale(1.1)" fill="url(#gClsshareh)" filter="url(#shssshareh)"><ellipse cx="0" cy="0" rx="46" ry="20"/><ellipse cx="-24" cy="-10" rx="24" ry="20"/><ellipse cx="14" cy="-18" rx="30" ry="26"/><ellipse cx="40" cy="-4" rx="22" ry="16"/></g><g transform="translate(730 60) scale(0.8)" fill="url(#gClsshareh)" filter="url(#shssshareh)"><ellipse cx="0" cy="0" rx="46" ry="20"/><ellipse cx="-24" cy="-10" rx="24" ry="20"/><ellipse cx="14" cy="-18" rx="30" ry="26"/><ellipse cx="40" cy="-4" rx="22" ry="16"/></g><g transform="translate(620 400) scale(1.4)" fill="url(#gClsshareh)" filter="url(#shssshareh)"><ellipse cx="0" cy="0" rx="46" ry="20"/><ellipse cx="-24" cy="-10" rx="24" ry="20"/><ellipse cx="14" cy="-18" rx="30" ry="26"/><ellipse cx="40" cy="-4" rx="22" ry="16"/></g><g transform="translate(320 420) scale(0.9)" fill="url(#gClsshareh)" filter="url(#shssshareh)"><ellipse cx="0" cy="0" rx="46" ry="20"/><ellipse cx="-24" cy="-10" rx="24" ry="20"/><ellipse cx="14" cy="-18" rx="30" ry="26"/><ellipse cx="40" cy="-4" rx="22" ry="16"/></g><g transform="translate(-10 10) scale(1.0)"><g transform="translate(540 90)"><rect x="0" y="0" width="170" height="300" rx="30" fill="#2B3A5C"/><rect x="12" y="16" width="146" height="268" rx="20" fill="#fff"/><rect x="26" y="40" width="104" height="42" rx="18" fill="#DCE3EE"/><rect x="48" y="96" width="98" height="96" rx="20" fill="url(#gAsshareh)"/><g transform="translate(70 104) scale(.3)"><g><rect x="66" y="0" width="68" height="26" rx="12" fill="none" stroke="var(--handle)" stroke-width="11"/><rect x="30" y="22" width="140" height="210" rx="30" fill="url(#gCsshareh)"/><rect x="62" y="48" width="14" height="158" rx="7" fill="#fff" fill-opacity=".35"/><rect x="124" y="48" width="14" height="158" rx="7" fill="#fff" fill-opacity=".35"/><circle cx="62" cy="246" r="13" fill="var(--handle)"/><circle cx="138" cy="246" r="13" fill="var(--handle)"/></g></g><rect x="26" y="208" width="90" height="38" rx="18" fill="#DCE3EE"/></g><circle cx="716" cy="196" r="30" fill="var(--pass-fill)"/><path d="M703.4 196.6l9.0 9.0 16.5-18.0" fill="none" stroke="#fff" stroke-width="7.800000000000001" stroke-linecap="round" stroke-linejoin="round"/><g filter="url(#shsshareh)"><g transform="translate(500 120) scale(0.8)"><path d="M-150 60c40-40 80-50 130-30" fill="none" stroke="var(--sizer)" stroke-width="4" stroke-dasharray="3 12" stroke-linecap="round"/><path d="M0 0l62 22-62 22 12-22z" fill="var(--plane)"/><path d="M12 22h50" stroke="var(--sky-a)" stroke-width="3"/></g></g></g></svg>
